<svg width="10" height="17" viewBox="0 0 10 17" fill="none" xmlns="http://www.w3.org/2000/svg">
<path d="M1.10449 14.1981H0.604492V14.6981V15.2293V15.478C0.56036 15.3991 0.541992 15.3179 0.541992 15.2293V1.771C0.541992 1.68243 0.56036 1.60124 0.604492 1.52235V1.771V2.30225V2.80225H1.10449H8.89616H9.39616V2.30225V1.771V1.52235C9.44029 1.60124 9.45866 1.68243 9.45866 1.771V15.2293C9.45866 15.3179 9.44029 15.3991 9.39616 15.478V15.2293V14.6981V14.1981H8.89616H1.10449ZM1.10449 15.7918C1.01593 15.7918 0.934738 15.7735 0.855849 15.7293H1.10449H8.89616H9.1448C9.06591 15.7735 8.98472 15.7918 8.89616 15.7918H1.10449ZM8.89616 1.2085C8.98472 1.2085 9.06591 1.22686 9.1448 1.271H8.89616H1.10449H0.855848C0.934738 1.22686 1.01593 1.2085 1.10449 1.2085H8.89616ZM0.604492 13.6356V14.1356H1.10449H8.89616H9.39616V13.6356V3.36475V2.86475H8.89616H1.10449H0.604492V3.36475V13.6356Z" fill="#666666" stroke="#666666"/>
</svg>
